<svg aria-hidden="true" style="position:absolute;width:0;height:0;overflow:hidden" xmlns="http://www.w3.org/2000/svg">
    <defs>
        <symbol id="icon-back" viewBox="0 0 32 32">
            <path
                d="m7.536 17.584 13.76 13.759a2.241 2.241 0 0 0 3.169-3.169L12.29 15.999 24.465 3.825A2.241 2.241 0 0 0 21.296.656L7.536 14.415a2.236 2.236 0 0 0 0 3.168z" />
        </symbol>
        <symbol id="icon-close" viewBox="0 0 32 32">
            <path
                d="M14.491 16 2.445 3.954l1.508-1.508 12.046 12.046L28.045 2.446l1.508 1.508L17.507 16l12.046 12.046-1.508 1.508-12.046-12.046L3.953 29.554l-1.508-1.508L14.491 16z" />
        </symbol>
        <symbol id="icon-dislike" viewBox="0 0 32 32">
            <path
                d="M0 16C0 7.163 7.163 0 16 0s16 7.163 16 16-7.163 16-16 16S0 24.837 0 16zM16 2.133C8.342 2.133 2.133 8.341 2.133 16S8.341 29.867 16 29.867c7.658 0 13.867-6.208 13.867-13.867S23.659 2.133 16 2.133zM10.667 12.8H8.534v-2.133h2.133V12.8zm12.8 0h-2.133v-2.133h2.133V12.8zm-15.36 8.747.64-.853c3.627-4.836 10.88-4.836 14.507 0l.64.853-1.707 1.28-.64-.853c-2.773-3.698-8.32-3.698-11.093 0l-.64.853-1.707-1.28z" />
        </symbol>
        <symbol id="icon-fav" viewBox="0 0 32 32">
            <path
                d="M8.609 4.267A6.476 6.476 0 0 0 4.03 15.322L16 27.292l11.97-11.97a6.475 6.475 0 1 0-9.158-9.158l-2.058 2.058a1.065 1.065 0 0 1-1.508 0l-2.057-2.058A6.478 6.478 0 0 0 8.61 4.267zM0 10.742a8.609 8.609 0 0 1 14.697-6.087L16 5.958l1.303-1.303A8.609 8.609 0 1 1 29.478 16.83L16.754 29.554a1.065 1.065 0 0 1-1.508 0L2.522 16.83A8.606 8.606 0 0 1 0 10.742z" />
        </symbol>
        <symbol id="icon-like" viewBox="0 0 32 32">
            <path
                d="M0 16C0 7.163 7.163 0 16 0s16 7.163 16 16-7.163 16-16 16S0 24.837 0 16zM16 2.133C8.342 2.133 2.133 8.341 2.133 16S8.341 29.867 16 29.867c7.658 0 13.867-6.208 13.867-13.867S23.659 2.133 16 2.133zM10.667 12.8H8.534v-2.133h2.133V12.8zm12.8 0h-2.133v-2.133h2.133V12.8zM9.813 17.707l.64.853c2.773 3.698 8.32 3.698 11.093 0l.64-.853 1.707 1.28-.64.853c-3.627 4.836-10.88 4.836-14.507 0l-.64-.853 1.707-1.28z" />
        </symbol>
        <symbol id="icon-search" viewBox="0 0 32 32">
            <path
                d="m30.978 29.147-7.616-7.921a12.88 12.88 0 0 0 3.031-8.306C26.393 5.796 20.597 0 13.473 0S.553 5.796.553 12.92s5.796 12.92 12.92 12.92c2.674 0 5.223-.807 7.402-2.338l7.674 7.981c.321.333.752.517 1.214.517a1.687 1.687 0 0 0 1.215-2.853zM13.473 3.37c5.266 0 9.55 4.284 9.55 9.55s-4.284 9.55-9.55 9.55-9.55-4.284-9.55-9.55c0-5.266 4.284-9.55 9.55-9.55z" />
        </symbol>
        <symbol id="icon-sort-bottom" viewBox="0 0 32 32">
            <path fill-rule="evenodd" clip-rule="evenodd"
                d="m6.088 28.358-4.579-4.579-1.508 1.508 6.4 6.4a1.066 1.066 0 0 0 1.508 0l6.4-6.4-1.508-1.508-4.579 4.579V0H6.089v28.358zM24.221 2.133a3.2 3.2 0 0 0-3.2 3.2v3.2h6.4v-3.2a3.2 3.2 0 0 0-3.2-3.2zm3.2 8.534v4.267h2.133v-9.6a5.333 5.333 0 1 0-10.666 0v9.6h2.133v-4.267h6.4zm-8.533 6.4h6.4a4.267 4.267 0 0 1 2.823 7.467 4.267 4.267 0 0 1-2.823 7.467h-6.4V17.068zm6.4 6.4a2.133 2.133 0 0 0 0-4.266h-4.267v4.267h4.267zM21.021 25.6h4.267a2.133 2.133 0 0 1 0 4.266h-4.267v-4.267z" />
        </symbol>
        <symbol id="icon-sort-top" viewBox="0 0 32 32">
            <path fill-rule="evenodd" clip-rule="evenodd"
                d="M6.4.312 0 6.712 1.508 8.22l4.579-4.579v28.358H8.22V3.641l4.579 4.579 1.508-1.508-6.4-6.4a1.065 1.065 0 0 0-1.508 0zm17.821 1.821a3.2 3.2 0 0 0-3.2 3.2v3.2h6.4v-3.2a3.2 3.2 0 0 0-3.2-3.2zm3.2 8.534v4.267h2.133v-9.6a5.333 5.333 0 1 0-10.666 0v9.6h2.133v-4.267h6.4zm-8.533 6.4h6.4a4.267 4.267 0 0 1 2.823 7.467 4.267 4.267 0 0 1-2.823 7.467h-6.4V17.068zm6.4 6.4a2.133 2.133 0 0 0 0-4.266h-4.267v4.267h4.267zM21.021 25.6h4.267a2.133 2.133 0 0 1 0 4.266h-4.267v-4.267z" />
        </symbol>
        <symbol id="icon-update" viewBox="0 0 32 32">
            <path
                d="m15.171 4-2.477-2.475L14.218 0l5.074 5.071-5.074 5.071-1.524-1.525 2.461-2.46c-6.336.24-11.4 5.451-11.4 11.839 0 6.541 5.309 11.848 11.856 11.848s11.856-5.307 11.856-11.848v-1.078h2.156v1.078C29.623 25.729 23.347 32 15.611 32S1.599 25.73 1.599 17.996c0-7.586 6.038-13.764 13.571-13.997z" />
        </symbol>
        <symbol id="icon-logo" viewBox="0 0 141 32">
            <path fill="#ff868e" style="fill:var(--color1, #ff868e)"
                d="M10.454 16.61c0-3.4 2.756-6.156 6.156-6.156h9.234a6.156 6.156 0 1 1 0 12.312H16.61a6.156 6.156 0 0 1-6.156-6.156z" />
            <path fill="#ff868e" style="fill:var(--color1, #ff868e)"
                d="M16.61 32a6.156 6.156 0 0 1-6.156-6.156V16.61a6.156 6.156 0 1 1 12.312 0v9.234c0 3.4-2.756 6.156-6.156 6.156zM15.39 3.847a3.847 3.847 0 1 1-7.694 0 3.847 3.847 0 0 1 7.694 0zM7.695 22.315a3.847 3.847 0 1 1-7.694 0 3.847 3.847 0 0 1 7.694 0zM26.162 3.847a3.847 3.847 0 1 1-7.694 0 3.847 3.847 0 0 1 7.694 0zM7.695 11.542a3.847 3.847 0 1 1-7.694 0 3.847 3.847 0 0 1 7.694 0z" />
            <path
                d="M42.526 25.067V8.581h7.731c1.297 0 2.355.247 3.174.742.836.495 1.459 1.169 1.869 2.022s.614 1.826.614 2.918c0 1.109-.239 2.091-.717 2.944a4.894 4.894 0 0 1-1.997 1.997c-.853.461-1.869.691-3.046.691h-4.173v5.171h-3.456zm3.456-7.911h3.456c.99 0 1.732-.256 2.227-.768.512-.529.768-1.237.768-2.125 0-.956-.239-1.681-.717-2.176-.478-.512-1.195-.768-2.15-.768h-3.584v5.837zM64.149 25.323c-2.099 0-3.763-.521-4.992-1.562-1.229-1.058-1.843-2.654-1.843-4.787 0-1.929.512-3.456 1.536-4.582 1.041-1.143 2.586-1.715 4.634-1.715 1.877 0 3.311.495 4.301 1.485 1.007.973 1.51 2.253 1.51 3.84v2.202h-8.781c.188.973.631 1.638 1.331 1.997.717.358 1.724.538 3.021.538.649 0 1.306-.06 1.971-.179.683-.119 1.263-.273 1.741-.461v2.458c-.563.256-1.22.444-1.971.563-.751.137-1.57.205-2.458.205zm-3.635-7.245h5.76v-.666c0-.7-.205-1.246-.614-1.638-.41-.41-1.101-.614-2.074-.614-1.143 0-1.946.23-2.406.691-.444.461-.666 1.203-.666 2.227zM76.514 25.323c-1.399 0-2.441-.367-3.123-1.101-.666-.734-.998-1.732-.998-2.995v-5.632h-1.715v-2.662h1.715v-2.611l3.456-1.024v3.635h3.072l-.205 2.662h-2.867v5.402c0 .666.154 1.126.461 1.382.307.239.785.358 1.434.358.478 0 .973-.085 1.485-.256v2.381a5.364 5.364 0 0 1-1.229.333 7.925 7.925 0 0 1-1.485.128zM85.276 25.323c-.905 0-1.766-.068-2.586-.205-.819-.119-1.476-.273-1.971-.461V21.79c.597.239 1.271.427 2.022.563.751.119 1.442.179 2.074.179.853 0 1.451-.051 1.792-.154.358-.102.538-.333.538-.691 0-.41-.273-.708-.819-.896a96.117 96.117 0 0 0-2.381-.794c-1.109-.375-1.963-.828-2.56-1.357s-.896-1.314-.896-2.355c0-1.161.418-2.048 1.254-2.662.853-.631 2.219-.947 4.096-.947.751 0 1.459.06 2.125.179.666.102 1.229.23 1.69.384v2.842a5.96 5.96 0 0 0-1.587-.486 8.552 8.552 0 0 0-1.664-.179c-.734 0-1.323.051-1.766.154-.427.102-.64.324-.64.666 0 .375.23.64.691.794.478.154 1.212.384 2.202.691.973.29 1.732.606 2.278.947s.93.751 1.152 1.229c.222.461.333 1.041.333 1.741 0 2.458-1.792 3.686-5.376 3.686zM93.051 25.067V8.581h7.731c1.297 0 2.355.247 3.174.742.836.495 1.459 1.169 1.869 2.022s.614 1.826.614 2.918c0 1.109-.239 2.091-.717 2.944a4.894 4.894 0 0 1-1.997 1.997c-.853.461-1.869.691-3.046.691h-4.173v5.171H93.05zm3.456-7.911h3.456c.99 0 1.732-.256 2.227-.768.512-.529.768-1.237.768-2.125 0-.956-.239-1.681-.717-2.176-.478-.512-1.195-.768-2.15-.768h-3.584v5.837zM111.665 25.323a5.607 5.607 0 0 1-2.15-.41 3.965 3.965 0 0 1-1.587-1.254c-.393-.563-.589-1.263-.589-2.099 0-1.195.418-2.15 1.254-2.867.853-.717 2.108-1.075 3.763-1.075h3.584v-.333c0-.751-.213-1.28-.64-1.587-.41-.307-1.246-.461-2.509-.461a12.54 12.54 0 0 0-3.994.64v-2.432c.563-.222 1.246-.401 2.048-.538.819-.154 1.707-.23 2.662-.23 1.826 0 3.234.375 4.224 1.126 1.007.734 1.51 1.92 1.51 3.558v7.706h-2.995l-.179-1.101c-.478.427-1.067.759-1.766.998s-1.579.358-2.637.358zm.948-2.279c.768 0 1.434-.128 1.997-.384s1.007-.58 1.331-.973v-1.92h-3.507c-1.348 0-2.022.555-2.022 1.664 0 1.075.734 1.613 2.202 1.613zM124.064 25.067l-3.2-12.134h3.456l1.843 7.885 2.022-6.323v-1.562h2.637l2.304 7.885 1.792-7.885h3.431l-3.175 12.134h-3.175l-2.33-7.091-2.381 7.091h-3.226z" />
        </symbol>
        <symbol id="icon-open" viewBox="0 0 53 32">
            <path d="M53.333 3.556H0V0h53.333v3.556zm0 14.222H0v-3.556h53.333v3.556zm0 14.222H0v-3.556h53.333V32z" />
        </symbol>
        <symbol id="icon-fav-img" viewBox="0 0 32 32">
            <path
                d="M8.609 2.133A8.609 8.609 0 0 0 2.522 16.83l12.724 12.724a1.065 1.065 0 0 0 1.508 0L29.478 16.83A8.609 8.609 0 1 0 17.303 4.655L16 5.958l-1.303-1.303a8.606 8.606 0 0 0-6.088-2.522z" />
        </symbol>
        <symbol id="icon-upload" viewBox="0 0 32 32">
            <path
                d="m15.732 0 8.739 8.067-1.645 1.782-5.847-5.398v20.272h-2.425V4.609L9.348 9.815 7.633 8.1l8.1-8.1zM2.425 29.575V15.022H0V32h31.531V15.022h-2.425v14.553H2.426z" />
        </symbol>
        <symbol id="icon-prev" viewBox="0 0 32 32">
            <path
                d="M20 28a1.99 1.99 0 0 1-1.414-.586l-10-10a2 2 0 0 1 0-2.828l10-10a2 2 0 1 1 2.828 2.828L12.828 16l8.588 8.587A2 2 0 0 1 20 27.999z" />
        </symbol>
        <symbol id="icon-error" viewBox="0 0 32 32">
            <path fill="#ff868e" style="fill:var(--color1, #ff868e)"
                d="M0 16C0 7.163 7.163 0 16 0s16 7.163 16 16c0 8.836-7.164 16-16 16S0 24.836 0 16zM16 2.133C8.342 2.133 2.133 8.341 2.133 16S8.341 29.867 16 29.867c7.658 0 13.867-6.208 13.867-13.867S23.659 2.133 16 2.133zM14.492 16l-5.646-5.646 1.508-1.508L16 14.492l5.646-5.646 1.508 1.508L17.508 16l5.646 5.646-1.508 1.508L16 17.508l-5.646 5.646-1.508-1.508L14.492 16z" />
        </symbol>
        <symbol id="icon-success" viewBox="0 0 32 32">
            <path fill="#97eab9" style="fill:var(--color2, #97eab9)"
                d="M0 16C0 7.163 7.163 0 16 0s16 7.163 16 16c0 8.836-7.164 16-16 16S0 24.836 0 16zM16 2.133C8.342 2.133 2.133 8.341 2.133 16S8.341 29.867 16 29.867c7.658 0 13.867-6.208 13.867-13.867S23.659 2.133 16 2.133zm8.3 9.2-9.213 11.516-7.236-6.03 1.366-1.639 5.564 4.637L22.635 10l1.666 1.333z" />
        </symbol>
        <symbol id="icon-spinner" viewBox="0 0 32 32">
            <path
                d="M12 4a4 4 0 1 1 8 0 4 4 0 0 1-8 0zm8.485 3.515a4 4 0 1 1 8 0 4 4 0 0 1-8 0zM26 16a2 2 0 1 1 3.999-.001A2 2 0 0 1 26 16zm-3.515 8.485a2 2 0 1 1 3.999-.001 2 2 0 0 1-3.999.001zM14 28a2 2 0 1 1 4 0 2 2 0 1 1-4 0zm-8.485-3.515a2 2 0 1 1 4 0 2 2 0 1 1-4 0zm-1-16.97a3 3 0 1 1 6 0 3 3 0 1 1-6 0zM1.75 16a2.25 2.25 0 1 1 4.5 0 2.25 2.25 0 0 1-4.5 0z" />
        </symbol>

        <symbol id="icon-fav-1" viewBox="0 0 36 32">
            <path
                d="M9.566 0a9.566 9.566 0 0 0-6.764 16.33L16.94 30.468a1.185 1.185 0 0 0 1.676 0L32.754 16.33A9.566 9.566 0 1 0 19.226 2.802L17.778 4.25 16.33 2.802A9.566 9.566 0 0 0 9.566 0z" />
        </symbol>
        <symbol id="icon-close-eye" viewBox="0 0 57 32">
            <path
                d="M9.468 11.058c4.037 4.486 10.2 8.854 18.976 8.854s14.939-4.368 18.976-8.854a35.525 35.525 0 0 0 4.441-6.185c.478-.843.827-1.541 1.053-2.022.113-.24.196-.426.249-.547l.057-.133.012-.028.001-.003c0 .001-.001.001 1.76.706s1.76.705 1.76.706l-.001.002-.002.006-.006.016-.022.053a24.567 24.567 0 0 1-.376.84c-.262.556-.654 1.34-1.184 2.274a39.272 39.272 0 0 1-4.922 6.852 34.975 34.975 0 0 1-2.269 2.301l6.467 6.467-2.682 2.682-6.731-6.731c-3.822 2.77-8.682 4.947-14.684 5.33v7.645h-3.793v-7.645c-6.002-.383-10.861-2.561-14.683-5.33l-6.731 6.731-2.682-2.682 6.467-6.467a34.727 34.727 0 0 1-2.269-2.301 39.272 39.272 0 0 1-4.922-6.852A34.335 34.335 0 0 1 .544 4.469a24.567 24.567 0 0 1-.376-.84l-.022-.053-.007-.016-.002-.006-.001-.002c0-.001-.001-.002 1.76-.706s1.76-.705 1.76-.706l.001.003.012.028.057.133c.053.122.135.307.248.547.227.481.575 1.179 1.053 2.022a35.525 35.525 0 0 0 4.441 6.185zm-5.813-8.92z" />
        </symbol>
        <symbol id="icon-eye" viewBox="0 0 32 32">
            <path
                d="m2.234 16 .002-.004c.127-.27.324-.663.592-1.137a20.016 20.016 0 0 1 2.498-3.479C7.597 8.857 11.063 6.4 16 6.4s8.403 2.457 10.674 4.98a19.925 19.925 0 0 1 2.498 3.479 16.905 16.905 0 0 1 .594 1.14l-.002.003c-.128.27-.324.663-.592 1.137a19.978 19.978 0 0 1-2.498 3.479c-2.271 2.523-5.737 4.98-10.674 4.98s-8.403-2.457-10.674-4.98a20 20 0 0 1-2.498-3.479 16.905 16.905 0 0 1-.592-1.137l-.002-.003zm28.699 0 .99-.397-.001-.001-.001-.003-.004-.009-.012-.03a11.704 11.704 0 0 0-.212-.473 19.384 19.384 0 0 0-.666-1.279 22.138 22.138 0 0 0-2.769-3.854c-2.529-2.81-6.529-5.686-12.259-5.686S6.269 7.144 3.74 9.954a22.072 22.072 0 0 0-2.768 3.854 19.64 19.64 0 0 0-.834 1.648 4.707 4.707 0 0 0-.044.104l-.012.03-.004.009-.002.004.99.397-.99-.396a1.063 1.063 0 0 0 0 .792l.99-.396-.99.397v.001l.001.003.004.009.012.03.044.104a19.384 19.384 0 0 0 .834 1.648 22.141 22.141 0 0 0 2.768 3.854c2.529 2.81 6.529 5.686 12.259 5.686s9.73-2.876 12.259-5.686a22.138 22.138 0 0 0 2.769-3.854 19.64 19.64 0 0 0 .834-1.648l.044-.104.012-.03.004-.009.001-.003.001-.001-.99-.397zm0 0 .99.396a1.063 1.063 0 0 0 0-.792l-.99.396zm-20.266 0a5.333 5.333 0 1 1 10.666 0 5.333 5.333 0 0 1-10.666 0zM16 12.8a3.2 3.2 0 1 0 0 6.4 3.2 3.2 0 0 0 0-6.4z" />
        </symbol>
    </defs>
</svg>