<?xml version="1.0" standalone="no"?>
<!DOCTYPE svg PUBLIC "-//W3C//DTD SVG 20010904//EN"
 "http://www.w3.org/TR/2001/REC-SVG-20010904/DTD/svg10.dtd">
<svg version="1.0" xmlns="http://www.w3.org/2000/svg"
 width="700.000000pt" height="700.000000pt" viewBox="0 0 700.000000 700.000000"
 preserveAspectRatio="xMidYMid meet">
<metadata>
Created by potrace 1.14, written by Peter Selinger 2001-2017
</metadata>
<g transform="translate(0.000000,700.000000) scale(0.100000,-0.100000)"
fill="#000000" stroke="none">
<path d="M2429 6996 c-2 -2 -23 -6 -46 -9 -140 -20 -291 -92 -417 -200 -93
-81 -188 -221 -237 -352 -51 -135 -57 -317 -15 -500 25 -112 108 -256 206
-355 110 -112 185 -163 310 -209 110 -40 182 -53 295 -52 576 2 975 557 796
1107 -84 261 -313 475 -580 545 -68 18 -299 37 -312 25z"/>
<path d="M4765 6993 c-168 -34 -246 -66 -363 -146 -176 -121 -301 -311 -346
-525 -17 -83 -14 -274 6 -357 59 -238 212 -435 428 -549 329 -173 723 -114
985 149 187 187 274 440 241 705 -42 334 -314 636 -636 706 -19 4 -42 9 -50
11 -23 6 -242 11 -265 6z"/>
<path d="M705 5305 c-153 -29 -264 -78 -380 -168 -152 -117 -271 -308 -310
-497 -12 -57 -14 -231 -4 -295 56 -353 335 -637 686 -698 115 -20 279 -13 352
14 14 6 28 10 31 10 12 -2 80 24 135 52 342 170 527 549 449 923 -55 268 -249
501 -504 607 -134 56 -322 77 -455 52z"/>
<path d="M3525 4708 c-126 -9 -331 -55 -359 -80 -6 -4 -16 -8 -23 -8 -7 0 -45
-15 -85 -34 -414 -194 -716 -616 -764 -1066 -9 -85 -9 -2225 0 -2310 51 -481
351 -893 795 -1094 46 -21 91 -39 100 -42 9 -2 47 -13 85 -23 37 -11 87 -23
109 -27 23 -3 46 -8 51 -11 15 -10 298 -11 370 -2 100 13 227 46 331 87 50 19
95 38 100 42 6 4 37 22 70 40 285 156 534 476 623 800 45 160 50 228 51 649 1
212 3 386 4 387 2 2 178 4 392 5 427 1 466 4 635 48 80 20 265 95 291 117 8 8
19 14 23 14 19 0 188 126 251 187 96 92 153 162 217 264 47 76 71 122 122 240
22 50 64 221 75 304 9 71 8 355 -2 371 -2 5 -8 31 -11 57 -4 26 -22 94 -40
151 -168 510 -601 866 -1137 932 -71 9 -2157 11 -2274 2z"/>
<path d="M739 2955 c-2 -2 -24 -6 -49 -10 -65 -9 -183 -51 -249 -87 -183 -100
-326 -269 -393 -463 -36 -106 -43 -152 -43 -285 1 -128 17 -208 65 -322 147
-345 513 -554 884 -504 257 35 498 200 623 426 275 499 -17 1128 -573 1234
-63 12 -257 20 -265 11z"/>
</g>
</svg>
